<?xml version="1.0" standalone="no"?>
<!DOCTYPE svg PUBLIC "-//W3C//DTD SVG 20010904//EN"
 "http://www.w3.org/TR/2001/REC-SVG-20010904/DTD/svg10.dtd">
<svg version="1.0" xmlns="http://www.w3.org/2000/svg"
 width="1024.000000pt" height="1024.000000pt" viewBox="0 0 1024.000000 1024.000000"
 preserveAspectRatio="xMidYMid meet">

<g transform="translate(0.000000,1024.000000) scale(0.100000,-0.100000)"
fill="#000000" stroke="none">
<path d="M2183 7643 c-14 -16 -114 -181 -223 -368 -931 -1611 -960 -1662 -960
-1707 0 -23 7 -45 18 -56 9 -9 173 -107 362 -216 190 -110 374 -217 410 -238
82 -49 104 -54 144 -35 27 12 57 58 178 268 326 567 426 740 695 1199 66 113
166 286 223 385 56 99 106 184 111 189 14 15 11 79 -5 102 -8 11 -81 59 -163
106 -676 392 -687 398 -726 398 -29 0 -45 -7 -64 -27z"/>
<path d="M7800 7115 c-234 -118 -433 -223 -442 -235 -10 -12 -18 -37 -18 -55
0 -22 78 -190 246 -531 135 -274 277 -562 314 -639 37 -77 129 -266 205 -420
75 -154 155 -319 177 -367 33 -71 46 -90 74 -103 20 -9 44 -13 55 -10 52 17
869 425 888 444 47 47 54 31 -469 1097 -269 550 -499 1007 -511 1017 -45 37
-74 26 -519 -198z"/>
<path d="M5265 7130 c-174 -28 -385 -116 -521 -218 -104 -79 -229 -210 -604
-632 -91 -102 -178 -200 -194 -218 -105 -117 -123 -162 -114 -292 14 -185 214
-321 412 -280 135 28 187 66 501 370 131 128 253 242 270 255 78 57 196 81
298 60 118 -25 123 -29 646 -490 118 -104 294 -260 390 -345 97 -85 275 -242
396 -350 120 -107 280 -248 355 -313 74 -66 188 -166 253 -223 65 -57 122
-104 126 -104 24 0 237 175 446 366 55 51 113 102 128 115 l28 24 -279 570
c-154 314 -350 714 -437 890 l-158 321 -121 0 c-241 2 -402 53 -797 252 -290
146 -405 193 -564 228 -84 18 -375 27 -460 14z"/>
<path d="M3216 6817 c-16 -28 -115 -198 -219 -377 -104 -179 -206 -354 -226
-390 -38 -64 -135 -231 -237 -405 -325 -557 -325 -557 -312 -574 7 -9 104
-111 216 -228 l203 -211 85 88 c129 133 203 172 354 186 123 12 267 -45 361
-141 60 -62 90 -110 114 -185 10 -30 19 -56 20 -58 1 -1 28 4 61 13 136 35
282 3 398 -88 93 -74 166 -217 166 -328 l0 -49 38 6 c44 7 156 -17 214 -47 54
-28 143 -112 175 -166 48 -82 65 -143 65 -230 l0 -83 43 0 c58 0 161 -33 217
-70 25 -17 66 -52 91 -79 30 -32 47 -44 51 -35 9 23 57 47 92 46 35 -1 92 -47
394 -318 267 -240 283 -249 400 -249 151 1 270 126 270 285 0 34 -6 64 -15 78
-9 12 -163 151 -343 310 -180 159 -334 297 -342 307 -8 9 -15 35 -15 57 0 33
7 46 33 69 58 52 73 45 245 -108 441 -396 619 -549 659 -565 126 -50 278 5
343 124 36 66 46 118 34 186 -9 61 -6 58 -319 332 -444 390 -518 460 -525 490
-8 39 12 79 52 102 57 34 37 48 468 -337 526 -471 520 -465 616 -480 106 -16
239 57 291 159 33 63 36 168 8 234 -26 60 -61 95 -370 364 -118 102 -321 280
-450 394 -129 114 -376 331 -549 483 -173 152 -391 344 -484 426 -231 203
-240 210 -291 225 -48 13 -116 7 -152 -13 -12 -7 -133 -119 -270 -251 -317
-304 -416 -375 -568 -410 -368 -86 -721 217 -666 570 22 141 63 201 362 536
260 289 368 413 368 419 0 4 -24 5 -52 3 -538 -40 -806 -34 -992 21 -27 8 -57
15 -65 15 -9 0 -29 -24 -45 -53z"/>
<path d="M3043 4711 c-61 -16 -119 -60 -188 -143 -38 -45 -102 -120 -141 -165
-50 -58 -75 -97 -85 -130 -32 -109 -3 -220 78 -294 62 -57 104 -73 193 -72
126 0 145 14 339 242 139 165 155 197 149 300 -7 116 -55 190 -157 241 -48 24
-137 34 -188 21z"/>
<path d="M3623 4340 c-53 -22 -58 -26 -324 -330 -165 -187 -186 -229 -176
-338 6 -74 33 -127 91 -180 75 -69 156 -91 249 -67 81 21 105 41 244 202 65
75 152 175 194 223 94 107 113 151 107 254 -3 68 -7 80 -43 132 -55 79 -122
116 -219 121 -54 2 -83 -2 -123 -17z"/>
<path d="M4115 3866 c-54 -25 -61 -31 -275 -280 -80 -92 -155 -188 -167 -214
-52 -109 -13 -267 82 -334 63 -45 99 -56 176 -57 97 -1 147 27 246 142 250
287 295 342 310 375 25 57 23 176 -5 228 -35 68 -73 105 -137 135 -78 38 -158
39 -230 5z"/>
<path d="M4613 3355 c-79 -22 -107 -45 -247 -209 -148 -174 -171 -217 -163
-312 5 -71 44 -151 90 -190 61 -51 107 -68 187 -69 114 0 152 23 278 170 187
217 205 248 204 356 -2 171 -181 301 -349 254z"/>
<path d="M5141 3182 c14 -59 10 -163 -7 -223 -20 -69 -50 -120 -119 -204 -30
-37 -55 -71 -55 -75 0 -12 151 -77 209 -90 124 -29 276 11 370 95 49 44 88
104 74 114 -5 3 -110 96 -232 206 -123 110 -229 203 -236 207 -10 6 -11 0 -4
-30z"/>
</g>
</svg>
